<svg xmlns="http://www.w3.org/2000/svg" viewBox="0 0 64 64" fill="none">
  <!-- left ear -->
  <ellipse cx="19" cy="18" rx="6.5" ry="16" fill="#FFF8F0" stroke="#3D3A4A" stroke-width="2.2" transform="rotate(-12 19 18)"/>
  <ellipse cx="19" cy="19" rx="3" ry="9.5" fill="#FFC4A8" transform="rotate(-12 19 19)"/>
  <!-- right ear -->
  <ellipse cx="45" cy="18" rx="6.5" ry="16" fill="#FFF8F0" stroke="#3D3A4A" stroke-width="2.2" transform="rotate(12 45 18)"/>
  <ellipse cx="45" cy="19" rx="3" ry="9.5" fill="#FFC4A8" transform="rotate(12 45 19)"/>
  <!-- head -->
  <circle cx="32" cy="42" r="18" fill="#FFF8F0" stroke="#3D3A4A" stroke-width="2.2"/>
  <!-- blush -->
  <circle cx="21" cy="45" r="4" fill="#FFC4A8" opacity="0.85"/>
  <circle cx="43" cy="45" r="4" fill="#FFC4A8" opacity="0.85"/>
  <!-- eyes -->
  <circle cx="25" cy="40" r="4.5" fill="#3D3A4A"/>
  <circle cx="39" cy="40" r="4.5" fill="#3D3A4A"/>
  <circle cx="26.4" cy="38.6" r="1.4" fill="#FFFFFF"/>
  <circle cx="40.4" cy="38.6" r="1.4" fill="#FFFFFF"/>
  <!-- nose -->
  <path d="M32 44.5 L29.5 47.5 L34.5 47.5 Z" fill="#FFC4A8"/>
  <!-- smile -->
  <path d="M26 49.5 Q32 56 38 49.5" stroke="#3D3A4A" stroke-width="2" stroke-linecap="round" fill="none"/>
</svg>
